<svg width="46" height="36" viewBox="0 0 46 36" fill="none" xmlns="http://www.w3.org/2000/svg">
<path d="M9.91793 0C7.35029 0 5.45027 2.24736 5.53535 4.68457C5.61709 7.02598 5.51092 10.0587 4.7475 12.5318C3.9818 15.0121 2.68664 16.5832 0.571289 16.785V19.0624C2.68664 19.2642 3.9818 20.8354 4.7475 23.3158C5.51092 25.7889 5.61709 28.8213 5.53535 31.1629C5.45027 33.5997 7.35029 35.8474 9.91828 35.8474H36.228C38.7958 35.8474 40.6953 33.6001 40.6102 31.1629C40.5287 28.8214 40.6346 25.7889 41.3981 23.3158C42.1643 20.8355 43.4559 19.264 45.5713 19.0624V16.785C43.4559 16.5832 42.1643 15.0121 41.3982 12.5318C40.6346 10.0591 40.5287 7.02615 40.6102 4.68457C40.6953 2.24771 38.7958 0 36.228 0H9.91758H9.91793ZM31.0799 22.0663C31.0799 25.4224 28.5768 27.4576 24.4227 27.4576H17.351C17.1488 27.4575 16.9548 27.3771 16.8118 27.2341C16.6688 27.0911 16.5885 26.8971 16.5885 26.6948V9.15258C16.5885 9.0524 16.6082 8.9532 16.6465 8.86065C16.6848 8.76809 16.741 8.68399 16.8118 8.61314C16.8826 8.5423 16.9667 8.4861 17.0593 8.44776C17.1518 8.40942 17.251 8.38969 17.3512 8.38969H24.3823C27.846 8.38969 30.1192 10.2662 30.1192 13.1469C30.1192 15.1689 28.5899 16.9791 26.6418 17.296V17.4016C29.2941 17.6926 31.0799 19.5293 31.0799 22.0663ZM23.6514 10.8076H19.6195V16.5029H23.0156C25.6407 16.5029 27.0884 15.4457 27.0884 13.5561C27.0884 11.7854 25.8434 10.8076 23.6514 10.8076ZM19.6196 18.7627V25.039H23.8001C26.5331 25.039 27.9812 23.9423 27.9812 21.8811C27.9812 19.8195 26.4929 18.7624 23.6243 18.7624H19.6196V18.7627Z" fill="#7E13F8"/>
</svg>
