<svg width="40" height="40" viewBox="0 0 40 40" fill="none" xmlns="http://www.w3.org/2000/svg">
<path d="M36.8236 30.2624C34.6756 30.2036 33.0356 30.4044 31.6325 30.9952C31.2342 31.1637 30.5991 31.1674 30.5341 31.6668C30.7531 31.8966 30.7867 32.2394 30.9613 32.5222C31.2959 33.0625 31.8614 33.7891 32.3657 34.1708C32.9167 34.586 33.4848 35.0311 34.0756 35.3909C35.1272 36.0323 36.3005 36.3982 37.3112 37.0396C37.9082 37.4184 38.4999 37.895 39.0824 38.3222C39.3701 38.5329 39.5639 38.8613 39.9366 38.9937V38.9337C39.7404 38.6835 39.6899 38.3392 39.5094 38.0783L38.7152 37.2841C37.939 36.2541 36.9536 35.3494 35.9069 34.5984C35.0718 33.998 33.202 33.1882 32.8542 32.2172L32.7929 32.1559C33.385 32.0885 34.078 31.8744 34.6254 31.7274C35.5434 31.4819 36.3643 31.5457 37.3112 31.3002L38.5939 30.9346V30.6903C38.1149 30.1993 37.7733 29.5484 37.2511 29.1033C35.8831 27.9386 34.391 26.7761 32.8545 25.8064C32.0025 25.2685 30.9496 24.9183 30.0461 24.4624C29.7418 24.3096 29.2086 24.2289 29.0078 23.9738C28.5337 23.3698 28.2749 22.6034 27.9093 21.8983C27.1429 20.4219 26.3907 18.8108 25.7108 17.2574C25.2475 16.1987 24.9457 15.1541 24.3681 14.2047C21.5958 9.64671 18.6118 6.89501 13.9888 4.19106C13.0046 3.61595 11.8205 3.38862 10.5689 3.09137L8.55345 2.96969C8.14315 2.79873 7.71713 2.29694 7.33208 2.05266C5.80083 1.0845 1.87212 -1.02001 0.737311 1.7474C0.0214323 3.49335 1.80836 5.19711 2.44723 6.08272C2.89604 6.70249 3.46991 7.39896 3.78996 8.09697C4.00189 8.55657 4.03793 9.01616 4.21844 9.50132C4.6614 10.6974 5.0486 11.9992 5.62278 13.1038C5.91265 13.6632 6.2327 14.2519 6.59988 14.7524C6.82382 15.0592 7.20979 15.1954 7.2714 15.6682C6.89344 16.1965 6.87188 17.0159 6.66025 17.6837C5.70595 20.6932 6.06697 24.4328 7.45437 26.659C7.88039 27.3438 8.88398 28.8091 10.2628 28.2472C11.4696 27.755 11.2001 26.233 11.5454 24.889C11.6237 24.5847 11.5756 24.3607 11.7284 24.1562V24.2175L12.8281 26.4147C13.6416 27.7251 15.0842 29.0943 16.308 30.0185C16.9422 30.4975 17.4416 31.3251 18.2622 31.6055V31.5442H18.2009C18.0419 31.2962 17.793 31.1939 17.591 30.9955C17.1132 30.5264 16.5815 29.9439 16.1866 29.4073C15.0737 27.8973 14.0904 26.2438 13.1953 24.5234C12.7668 23.7015 12.395 22.7956 12.034 21.9593C11.8944 21.6368 11.8969 21.1482 11.6067 20.9822C11.2121 21.5946 10.6296 22.0905 10.3241 22.8135C9.83674 23.9698 9.77297 25.3813 9.59246 26.8432C9.48526 26.8817 9.5324 26.8552 9.46986 26.9045C8.61906 26.6987 8.32088 25.8239 8.00422 25.072C7.20517 23.1732 7.05608 20.1157 7.75995 17.9283C7.94169 17.3627 8.76477 15.582 8.43147 15.0586C8.27252 14.5377 7.74793 14.2355 7.45437 13.8372C7.09089 13.345 6.72895 12.6966 6.47728 12.1273C5.8227 10.6472 5.51836 8.98443 4.82866 7.48768C4.49906 6.7718 3.94306 6.04729 3.48593 5.41212C2.97921 4.70702 2.41273 4.18705 2.02029 3.33533C1.88075 3.03222 1.69192 2.54706 1.89769 2.23687C1.96392 2.02617 2.05664 1.93838 2.26456 1.87C2.61819 1.59677 3.60514 1.96148 3.97324 2.11427C4.9528 2.52088 5.76972 2.90839 6.59988 3.45824C6.99694 3.72161 7.40016 4.23203 7.88131 4.37403H8.43116C9.29028 4.57149 10.2529 4.4341 11.0566 4.67837C12.4763 5.11024 13.7482 5.78176 14.9033 6.51089C18.4217 8.73338 21.3 11.8954 23.2684 15.6701C23.5848 16.2778 23.7221 16.8566 24.0012 17.5014C24.5631 18.801 25.2719 20.1378 25.8313 21.4097C26.3907 22.6767 26.9347 23.9572 27.7251 25.0122C28.1403 25.567 29.743 25.8643 30.4722 26.1723C30.9835 26.3876 31.8211 26.6128 32.3047 26.9051C33.2288 27.4624 34.1239 28.1265 34.9917 28.7364C35.4236 29.042 36.7567 29.7123 36.823 30.2633L36.8236 30.2624ZM9.52993 6.99944C9.08235 6.99112 8.766 7.04749 8.43147 7.12111V7.18241H8.49154C8.70562 7.62044 9.08235 7.90322 9.34696 8.28087L9.95687 9.56354L10.0182 9.50347C10.3961 9.2364 10.5692 8.81039 10.5668 8.15951C10.4152 7.99933 10.3937 7.80095 10.2612 7.60966C10.0881 7.35584 9.74987 7.2126 9.52962 6.99974L9.52993 6.99944Z" fill="#00618A"/>
</svg>
