<svg width="30" height="41" viewBox="0 0 30 41" fill="none" xmlns="http://www.w3.org/2000/svg">
<path d="M15.141 40.8964L3.30871 37.6116L0.671875 8.03711H29.6456L27.006 37.6071L15.141 40.8964Z" fill="#264DE4"/>
<path d="M24.7463 35.724L27.0019 10.4551H15.1588V38.382L24.7463 35.724Z" fill="#2965F1"/>
<path d="M6.71675 21.4235L7.0418 25.0507H15.1588V21.4235H6.71675ZM6.06348 14.082L6.39318 17.7092H15.1588V14.082H6.06348ZM15.1588 30.8438L15.1429 30.848L11.1033 29.7572L10.845 26.8644H7.20387L7.71199 32.5596L15.1421 34.6221L15.1588 34.6176V30.8438Z" fill="#EBEBEB"/>
<path d="M7.49072 0H11.8837V1.83716H9.32789V3.67433H11.884V5.51138H7.49072V0ZM12.7625 0H17.1556V1.59752H14.5996V1.91701H17.1556V5.59133H12.7626V3.91374H15.3185V3.59426H12.7623L12.7625 0ZM18.0343 0H22.4274V1.59752H19.8715V1.91701H22.4274V5.59133H18.0343V3.91374H20.5903V3.59426H18.0344L18.0343 0Z" fill="black"/>
<path d="M23.5776 21.4235L24.2323 14.082H15.1462V17.7092H20.2573L19.9272 21.4235H15.1462V25.0507H19.6127L19.1916 29.7549L15.1461 30.8468V34.6204L22.5821 32.5596L22.6366 31.9468L23.4891 22.3975L23.5776 21.4235Z" fill="white"/>
</svg>
