<svg width="41" height="25" viewBox="0 0 41 25" fill="none" xmlns="http://www.w3.org/2000/svg">
<path d="M20.4721 0.628906C15.1058 0.628906 11.753 3.31099 10.4104 8.67736C12.4221 5.99496 14.7706 4.9891 17.453 5.65978C18.9846 6.0415 20.0791 7.15206 21.2912 8.38274C23.264 10.3847 25.5473 12.7024 30.5339 12.7024C35.8999 12.7024 39.253 10.02 40.5956 4.65235C38.5836 7.33632 36.2354 8.34218 33.5527 7.6715C32.0215 7.28947 30.9282 6.17922 29.7145 4.94854C27.743 2.94657 25.4602 0.628906 20.4721 0.628906ZM10.4104 12.7024C5.04433 12.7024 1.69125 15.3848 0.348633 20.7524C2.36035 18.0684 4.70852 17.0626 7.39123 17.7333C8.92282 18.1153 10.0173 19.2255 11.2295 20.4562C13.2022 22.4582 15.4856 24.7758 20.4721 24.7758C25.8382 24.7758 29.1913 22.0938 30.5339 16.7274C28.5218 19.4098 26.1737 20.4157 23.491 19.745C21.9597 19.3633 20.8664 18.2527 19.6527 17.022C17.6813 15.02 15.3985 12.7024 10.4104 12.7024Z" fill="#38BDF8"/>
</svg>
