<svg width="30" height="42" viewBox="0 0 30 42" fill="none" xmlns="http://www.w3.org/2000/svg">
<path d="M29.5704 8.0957L26.9115 37.8826L14.9594 41.196L3.04033 37.8872L0.384155 8.0957H29.5704Z" fill="#E44D26"/>
<path d="M14.9773 38.664L24.6352 35.9865L26.9073 10.5322H14.9773V38.664Z" fill="#F16529"/>
<path d="M9.80844 17.8394H14.9773V14.1855H5.81531L5.90271 15.1658L6.80081 25.2347H14.9773V21.5809H10.1424L9.80844 17.8394ZM10.6319 27.0617H6.96406L7.47592 32.7987L14.9605 34.8763L14.9773 34.8717V31.0702L14.9613 31.0745L10.8921 29.9757L10.6319 27.0617Z" fill="#EBEBEB"/>
<path d="M3.09961 0H4.95643V1.83451H6.65502V0H8.51196V5.55536H6.65514V3.6951H4.95654V5.55536H3.09972L3.09961 0ZM10.9536 1.84229H9.31921V0H14.4462V1.84229H12.8108V5.55536H10.954V1.84229H10.9536ZM15.2599 0H17.196L18.387 1.95201L19.5768 0H21.5137V5.55536H19.6644V2.80182L18.387 4.77705H18.3549L17.0767 2.80182V5.55536H15.2599V0ZM22.4378 0H24.2951V3.71913H26.9064V5.55536H22.4376L22.4378 0Z" fill="black"/>
<path d="M14.9647 25.2347H19.464L19.0398 29.9734L14.9646 31.0733V34.8746L22.4551 32.7987L22.5101 32.1814L23.3688 22.5621L23.4579 21.5809H14.9647V25.2347ZM14.9647 17.8304V17.8394H23.7904L23.8636 17.0181L24.0302 15.1658L24.1175 14.1855H14.9647V17.8304Z" fill="white"/>
</svg>
