<svg width="37" height="29" viewBox="0 0 37 29" fill="none" xmlns="http://www.w3.org/2000/svg">
<path d="M18.375 11.4752L32.7456 15.0439C35.2472 14.0647 36.75 12.8231 36.75 11.4752V5.73431C36.75 2.5725 28.5206 0 18.375 0C8.22937 0 0 2.57119 0 5.73431V11.4765C0 14.6409 8.22544 17.2108 18.375 17.2108V11.4752Z" fill="#D33E44"/>
<path d="M32.7442 15.0427L18.375 11.4727V17.2083L32.7456 20.7783C35.2459 19.7965 36.75 18.5575 36.75 17.2083V11.4727C36.75 12.8219 35.2459 14.0622 32.7442 15.0427ZM0 11.4727V17.2083C0 20.3727 8.22544 22.9387 18.375 22.9387V17.2083C8.22544 17.2083 0 14.6358 0 11.4727Z" fill="white"/>
<path d="M32.7442 20.779L18.375 17.209V22.9446L32.7456 26.5146C35.2459 25.5342 36.75 24.2939 36.75 22.9446V17.209C36.75 18.5582 35.2459 19.7985 32.7442 20.779ZM0 17.209V22.9446C0 26.109 8.22544 28.675 18.375 28.675V22.9446C8.22544 22.9446 0 20.3747 0 17.209Z" fill="#D33E44"/>
</svg>
