<svg width="28" height="41" viewBox="0 0 28 41" fill="none" xmlns="http://www.w3.org/2000/svg">
<path d="M6.83333 40.9997C10.6053 40.9997 13.6667 37.9383 13.6667 34.1663V27.333H6.83333C3.06133 27.333 0 30.3943 0 34.1663C0 37.9383 3.06133 40.9997 6.83333 40.9997Z" fill="#0ACF83"/>
<path d="M0 20.5003C0 16.7283 3.06133 13.667 6.83333 13.667H13.6667V27.3337H6.83333C3.06133 27.3337 0 24.2723 0 20.5003Z" fill="#A259FF"/>
<path d="M0 6.83333C0 3.06133 3.06133 0 6.83333 0H13.6667V13.6667H6.83333C3.06133 13.6667 0 10.6053 0 6.83333Z" fill="#F24E1E"/>
<path d="M13.6666 0H20.5C24.272 0 27.3333 3.06133 27.3333 6.83333C27.3333 10.6053 24.272 13.6667 20.5 13.6667H13.6666V0Z" fill="#FF7262"/>
<path d="M27.3333 20.5003C27.3333 24.2723 24.272 27.3337 20.5 27.3337C16.728 27.3337 13.6666 24.2723 13.6666 20.5003C13.6666 16.7283 16.728 13.667 20.5 13.667C24.272 13.667 27.3333 16.7283 27.3333 20.5003Z" fill="#1ABCFE"/>
</svg>
