<svg width="37" height="37" viewBox="0 0 37 37" fill="none" xmlns="http://www.w3.org/2000/svg">
<path d="M2.89778 23.4672C2.15921 21.1668 1.94706 18.7378 2.37248 16.2388C2.55705 15.2022 2.84179 14.2076 3.15382 13.1998C3.15382 13.1998 5.1135 6.76704 11.7452 3.82709C11.7452 3.82709 14.0312 2.62006 17.4681 2.53565C17.4681 2.53565 16.9999 2.08069 16.7011 1.88176C15.0821 0.802463 12.6686 0.447385 11.2058 1.96758C10.7649 2.42141 10.3955 2.91914 9.98471 3.37326C9.5154 3.88421 8.94705 4.31075 8.29429 4.55132C7.72594 4.76459 7.15759 4.72182 6.5763 4.82171C5.97981 4.92075 5.36841 5.13402 4.88616 5.51751C4.36058 5.94406 4.14759 6.511 4.09132 7.16488C4.0342 7.67612 4.04855 8.20142 4.01985 8.71237C3.94867 10.2182 3.46613 10.6436 2.38683 11.4821C1.93271 11.8228 1.54922 12.2767 1.26448 12.7603C0.4128 14.265 1.77656 15.8266 1.8469 17.3468C1.86153 17.6591 1.83283 17.9711 1.71972 18.2699C1.60521 18.5963 1.37899 18.8096 1.19414 19.0788C0.938101 19.4342 0.767878 19.8605 0.839625 20.2999C0.909965 20.7408 1.1373 21.1527 1.35058 21.5365C1.76277 22.218 2.27372 22.828 2.81365 23.4104C2.84179 23.4104 2.86965 23.4388 2.89806 23.4675" fill="#E32186"/>
<path d="M29.9942 28.9181C33.2605 27.4981 34.6522 25.0418 34.6522 25.0418C37.7055 20.8808 36.669 16.4932 36.669 16.4932C34.7236 20.7246 32.9474 21.8897 32.9474 21.8897C37.7339 14.6039 32.9761 10.2023 32.9761 10.2023C34.9214 14.349 32.3374 19.4036 32.3374 19.4036C30.1644 23.9769 27.0827 25.6102 27.0827 25.6102C30.5195 26.2489 33.0476 23.9341 33.0476 23.9341C28.119 29.2591 22.7798 29.0042 22.7798 29.0042C25.0243 31.5179 28.3896 31.3046 28.3896 31.3046C23.9877 32.3409 19.8554 30.8781 16.4613 28.0521C15.8183 27.5253 15.2111 26.9562 14.6437 26.3487C14.6437 26.3487 14.1325 25.8091 14.0323 25.6673L14.0183 25.6532C13.9479 28.2797 16.6878 30.7219 16.6878 30.7219C13.251 29.3022 11.6751 26.2202 11.6751 26.2202C11.6751 26.2202 9.36032 22.2727 11.0364 17.7717C12.7113 13.2699 17.7815 12.3037 17.7815 12.3037C21.9712 14.3352 25.5211 14.9736 25.5211 14.9736C33.0048 16.2231 32.5794 12.5601 32.5794 12.5601C32.6497 9.40686 27.893 6.05584 27.893 6.05584C19.4148 -0.235391 11.7465 3.82578 11.7465 3.82578C5.11486 6.76572 3.15518 13.1985 3.15518 13.1985C2.84287 14.2063 2.5587 15.2009 2.37384 16.2372C1.64962 20.4556 2.74299 24.4453 5.11486 27.9964C8.8066 33.506 14.7999 35.4086 14.7999 35.4086C23.6749 38.4188 29.7385 33.9885 29.7385 33.9885C35.3195 30.1536 36.4416 25.7235 36.4416 25.7235C31.9398 29.2462 29.9945 28.9184 29.9945 28.9184L29.9942 28.9181ZM23.0646 8.19953C23.1654 8.19916 23.2653 8.21876 23.3585 8.2572C23.4517 8.29564 23.5363 8.35216 23.6076 8.4235C23.6788 8.49484 23.7352 8.57958 23.7735 8.67283C23.8118 8.76608 23.8312 8.866 23.8307 8.96681C23.8311 9.06751 23.8115 9.16729 23.7732 9.26039C23.7348 9.3535 23.6784 9.43809 23.6071 9.50928C23.5359 9.58048 23.4513 9.63687 23.3582 9.67521C23.2651 9.71355 23.1653 9.73308 23.0646 9.73267C22.9638 9.73319 22.8639 9.71375 22.7707 9.67546C22.6774 9.63717 22.5927 9.5808 22.5214 9.5096C22.45 9.4384 22.3935 9.35377 22.3551 9.26061C22.3166 9.16745 22.297 9.06759 22.2973 8.96681C22.2968 8.86591 22.3163 8.76592 22.3547 8.67261C22.3931 8.5793 22.4496 8.49453 22.521 8.42318C22.5923 8.35184 22.6771 8.29534 22.7704 8.25695C22.8637 8.21857 22.9637 8.19905 23.0646 8.19953Z" fill="url(#paint0_linear_970_48)"/>
<path d="M32.5631 12.5473C32.6334 9.3941 27.8768 6.04309 27.8768 6.04309C19.3985 -0.233796 11.7303 3.82737 11.7303 3.82737C5.0986 6.76731 3.13892 13.2001 3.13892 13.2001C2.75542 14.2937 2.41469 15.9698 2.41469 15.9698C2.0025 18.0713 2.18707 20.0166 2.18707 20.0166C2.35758 21.8773 2.76949 23.1271 2.76949 23.1271C3.19603 24.4613 3.39411 24.8735 3.39411 24.8735C3.38061 24.8304 3.30942 24.5184 3.30942 24.5184C3.30942 24.5184 2.71237 21.6499 3.26637 18.8945C3.26637 18.8945 3.74891 16.0261 5.70971 13.8115C5.70971 13.8115 8.8905 9.28099 14.8123 11.0561C14.8123 11.0561 16.0905 11.5111 16.53 11.7376C16.9709 11.9508 17.7371 12.2772 17.7371 12.2772C21.9265 14.3084 25.4765 14.9468 25.4765 14.9468C32.9888 16.2106 32.5634 12.5476 32.5634 12.5476L32.5631 12.5473ZM23.0627 9.74918C22.9619 9.7497 22.8619 9.73025 22.7687 9.69194C22.6754 9.65364 22.5907 9.59724 22.5194 9.52601C22.448 9.45478 22.3915 9.37012 22.3531 9.27693C22.3146 9.18373 22.295 9.08384 22.2954 8.98303C22.2949 8.88214 22.3144 8.78215 22.3528 8.68884C22.3912 8.59553 22.4477 8.51075 22.519 8.43941C22.5904 8.36806 22.6752 8.31157 22.7685 8.27318C22.8618 8.23479 22.9618 8.21528 23.0627 8.21576C23.1635 8.21539 23.2634 8.23499 23.3566 8.27343C23.4497 8.31187 23.5344 8.36839 23.6056 8.43973C23.6769 8.51106 23.7333 8.5958 23.7716 8.68906C23.8099 8.78231 23.8293 8.88222 23.8288 8.98303C23.8292 9.08376 23.8097 9.18357 23.7713 9.27671C23.733 9.36985 23.6765 9.45447 23.6053 9.52569C23.5341 9.59692 23.4495 9.65334 23.3563 9.69169C23.2632 9.73005 23.1634 9.74959 23.0627 9.74918Z" fill="url(#paint1_radial_970_48)"/>
<path d="M18.2067 6.83741L13.3642 5.33157C13.3355 5.33157 13.1939 5.2601 12.9376 5.33157C12.9376 5.33157 10.0832 6.05607 10.5804 7.61763C10.5804 7.61763 10.8792 8.59817 11.6881 9.54889L17.0131 9.2937L18.2067 6.83741Z" fill="url(#paint2_linear_970_48)"/>
<defs>
<linearGradient id="paint0_linear_970_48" x1="6.29138" y1="33.7477" x2="23.9621" y2="14.9486" gradientUnits="userSpaceOnUse">
<stop stop-color="#DF1C84"/>
<stop offset="0.401" stop-color="#DE1C85"/>
<stop offset="0.77" stop-color="#932C86"/>
<stop offset="1" stop-color="#5C2F87"/>
</linearGradient>
<radialGradient id="paint1_radial_970_48" cx="0" cy="0" r="1" gradientUnits="userSpaceOnUse" gradientTransform="translate(25.7417 9.96278) rotate(0.136224) scale(17.2655 14.4371)">
<stop stop-color="#DF1C84"/>
<stop offset="0.139" stop-color="#DE1E85"/>
<stop offset="0.285" stop-color="#D62085"/>
<stop offset="0.434" stop-color="#C82286"/>
<stop offset="0.586" stop-color="#B72786"/>
<stop offset="0.739" stop-color="#9C2A86"/>
<stop offset="0.891" stop-color="#7C2E87"/>
<stop offset="1" stop-color="#5C2F87"/>
</radialGradient>
<linearGradient id="paint2_linear_970_48" x1="10.5114" y1="7.4244" x2="18.2023" y2="7.4244" gradientUnits="userSpaceOnUse">
<stop stop-color="#DF1C84"/>
<stop offset="0.238" stop-color="#D91E85"/>
<stop offset="0.658" stop-color="#C72085"/>
<stop offset="0.999" stop-color="#B42184"/>
</linearGradient>
</defs>
</svg>
